<svg xmlns="http://www.w3.org/2000/svg" viewBox="0 0 64 64" fill="none">
  <defs>
    <linearGradient id="bg" x1="0" y1="0" x2="64" y2="64" gradientUnits="userSpaceOnUse">
      <stop offset="0%" stop-color="#0b0b0f"/>
      <stop offset="100%" stop-color="#111116"/>
    </linearGradient>
    <linearGradient id="g1" x1="8" y1="8" x2="56" y2="56" gradientUnits="userSpaceOnUse">
      <stop offset="0%" stop-color="#00FFB2"/>
      <stop offset="100%" stop-color="#00c48c"/>
    </linearGradient>
    <filter id="glow">
      <feGaussianBlur stdDeviation="1.5" result="blur"/>
      <feMerge><feMergeNode in="blur"/><feMergeNode in="SourceGraphic"/></feMerge>
    </filter>
  </defs>
  <rect width="64" height="64" rx="14" fill="url(#bg)"/>
  <circle cx="16" cy="16" r="1" fill="#00FFB2" opacity="0.2"/>
  <circle cx="32" cy="16" r="1" fill="#00FFB2" opacity="0.2"/>
  <circle cx="48" cy="16" r="1" fill="#00FFB2" opacity="0.2"/>
  <circle cx="16" cy="32" r="1" fill="#00FFB2" opacity="0.2"/>
  <circle cx="48" cy="32" r="1" fill="#00FFB2" opacity="0.2"/>
  <circle cx="16" cy="48" r="1" fill="#00FFB2" opacity="0.2"/>
  <circle cx="32" cy="48" r="1" fill="#00FFB2" opacity="0.2"/>
  <circle cx="48" cy="48" r="1" fill="#00FFB2" opacity="0.2"/>
  <path d="M14 20 L10 32 L14 44" stroke="#00FFB2" stroke-width="2.5" stroke-linecap="round" stroke-linejoin="round" fill="none" filter="url(#glow)"/>
  <line x1="28" y1="18" x2="22" y2="46" stroke="#00FFB2" stroke-width="2" stroke-linecap="round" opacity="0.7"/>
  <path d="M34 20 L34 44 M34 20 C44 20 50 25 50 32 C50 39 44 44 34 44" stroke="url(#g1)" stroke-width="2.5" stroke-linecap="round" stroke-linejoin="round" fill="none" filter="url(#glow)"/>
  <circle cx="54" cy="12" r="3" fill="#00FFB2" opacity="0.9"/>
  <rect width="64" height="64" rx="14" fill="none" stroke="#00FFB2" stroke-width="1" opacity="0.15"/>
</svg>
